<mxfile host="app.diagrams.net" agent="Mozilla/5.0 (Windows NT 10.0; Win64; x64) AppleWebKit/537.36 (KHTML, like Gecko) Chrome/134.0.0.0 Safari/537.36" version="26.1.0">
  <diagram name="Page-1" id="Rsg3ODyhtMbymQp4fG3v">
    <mxGraphModel dx="1167" dy="619" grid="1" gridSize="10" guides="1" tooltips="1" connect="1" arrows="1" fold="1" page="1" pageScale="1" pageWidth="850" pageHeight="1100" math="0" shadow="0">
      <root>
        <mxCell id="0" />
        <mxCell id="1" parent="0" />
        <mxCell id="grERy3gLBYckKLbgC4fB-10" value="" style="edgeStyle=orthogonalEdgeStyle;rounded=0;orthogonalLoop=1;jettySize=auto;html=1;" edge="1" parent="1" source="grERy3gLBYckKLbgC4fB-9" target="grERy3gLBYckKLbgC4fB-1">
          <mxGeometry relative="1" as="geometry" />
        </mxCell>
        <mxCell id="grERy3gLBYckKLbgC4fB-1" value="BESS" style="shape=cylinder3;whiteSpace=wrap;html=1;boundedLbl=1;backgroundOutline=1;size=15;" vertex="1" parent="1">
          <mxGeometry x="330" y="410" width="60" height="80" as="geometry" />
        </mxCell>
        <mxCell id="grERy3gLBYckKLbgC4fB-4" value="Charge" style="edgeStyle=orthogonalEdgeStyle;rounded=0;orthogonalLoop=1;jettySize=auto;html=1;entryX=0.5;entryY=0;entryDx=0;entryDy=0;entryPerimeter=0;exitX=0.063;exitY=0.751;exitDx=0;exitDy=0;exitPerimeter=0;" edge="1" parent="1" source="grERy3gLBYckKLbgC4fB-2" target="grERy3gLBYckKLbgC4fB-1">
          <mxGeometry relative="1" as="geometry">
            <mxPoint x="330" y="300" as="targetPoint" />
            <mxPoint x="400" y="260" as="sourcePoint" />
            <Array as="points">
              <mxPoint x="360" y="280" />
            </Array>
          </mxGeometry>
        </mxCell>
        <mxCell id="grERy3gLBYckKLbgC4fB-2" value="SS" style="ellipse;whiteSpace=wrap;html=1;aspect=fixed;" vertex="1" parent="1">
          <mxGeometry x="440" y="220" width="80" height="80" as="geometry" />
        </mxCell>
        <mxCell id="grERy3gLBYckKLbgC4fB-3" value="Discharge" style="edgeStyle=orthogonalEdgeStyle;rounded=0;orthogonalLoop=1;jettySize=auto;html=1;entryX=0.065;entryY=0.692;entryDx=0;entryDy=0;entryPerimeter=0;" edge="1" parent="1" source="grERy3gLBYckKLbgC4fB-1" target="grERy3gLBYckKLbgC4fB-2">
          <mxGeometry relative="1" as="geometry" />
        </mxCell>
        <mxCell id="grERy3gLBYckKLbgC4fB-7" style="edgeStyle=orthogonalEdgeStyle;rounded=0;orthogonalLoop=1;jettySize=auto;html=1;exitX=1;exitY=0.5;exitDx=0;exitDy=0;" edge="1" parent="1" source="grERy3gLBYckKLbgC4fB-5" target="grERy3gLBYckKLbgC4fB-2">
          <mxGeometry relative="1" as="geometry" />
        </mxCell>
        <mxCell id="grERy3gLBYckKLbgC4fB-5" value="Load" style="whiteSpace=wrap;html=1;" vertex="1" parent="1">
          <mxGeometry x="150" y="240" width="90" height="40" as="geometry" />
        </mxCell>
        <mxCell id="grERy3gLBYckKLbgC4fB-8" value="Data" style="rounded=0;whiteSpace=wrap;html=1;" vertex="1" parent="1">
          <mxGeometry x="30" y="520" width="120" height="60" as="geometry" />
        </mxCell>
        <mxCell id="grERy3gLBYckKLbgC4fB-9" value="BESS specs" style="whiteSpace=wrap;html=1;" vertex="1" parent="1">
          <mxGeometry x="310" y="550" width="100" height="40" as="geometry" />
        </mxCell>
        <mxCell id="grERy3gLBYckKLbgC4fB-13" value="" style="edgeStyle=orthogonalEdgeStyle;rounded=0;orthogonalLoop=1;jettySize=auto;html=1;" edge="1" parent="1" target="grERy3gLBYckKLbgC4fB-2">
          <mxGeometry relative="1" as="geometry">
            <mxPoint x="480" y="145" as="sourcePoint" />
          </mxGeometry>
        </mxCell>
        <mxCell id="grERy3gLBYckKLbgC4fB-14" value="Electricity grid" style="ellipse;whiteSpace=wrap;html=1;" vertex="1" parent="1">
          <mxGeometry x="425" y="80" width="110" height="60" as="geometry" />
        </mxCell>
        <mxCell id="grERy3gLBYckKLbgC4fB-16" value="" style="edgeStyle=orthogonalEdgeStyle;rounded=0;orthogonalLoop=1;jettySize=auto;html=1;" edge="1" parent="1" source="grERy3gLBYckKLbgC4fB-15" target="grERy3gLBYckKLbgC4fB-2">
          <mxGeometry relative="1" as="geometry" />
        </mxCell>
        <mxCell id="grERy3gLBYckKLbgC4fB-15" value="PV" style="ellipse;whiteSpace=wrap;html=1;" vertex="1" parent="1">
          <mxGeometry x="630" y="230" width="110" height="60" as="geometry" />
        </mxCell>
        <mxCell id="grERy3gLBYckKLbgC4fB-18" style="edgeStyle=orthogonalEdgeStyle;rounded=0;orthogonalLoop=1;jettySize=auto;html=1;entryX=0.5;entryY=1;entryDx=0;entryDy=0;" edge="1" parent="1" source="grERy3gLBYckKLbgC4fB-17" target="grERy3gLBYckKLbgC4fB-15">
          <mxGeometry relative="1" as="geometry" />
        </mxCell>
        <mxCell id="grERy3gLBYckKLbgC4fB-17" value="Weather data" style="whiteSpace=wrap;html=1;" vertex="1" parent="1">
          <mxGeometry x="590" y="400" width="90" height="40" as="geometry" />
        </mxCell>
        <mxCell id="grERy3gLBYckKLbgC4fB-20" style="edgeStyle=orthogonalEdgeStyle;rounded=0;orthogonalLoop=1;jettySize=auto;html=1;" edge="1" parent="1" source="grERy3gLBYckKLbgC4fB-19" target="grERy3gLBYckKLbgC4fB-15">
          <mxGeometry relative="1" as="geometry" />
        </mxCell>
        <mxCell id="grERy3gLBYckKLbgC4fB-19" value="PV Specs" style="whiteSpace=wrap;html=1;" vertex="1" parent="1">
          <mxGeometry x="690" y="400" width="90" height="40" as="geometry" />
        </mxCell>
        <mxCell id="grERy3gLBYckKLbgC4fB-22" value="" style="edgeStyle=orthogonalEdgeStyle;rounded=0;orthogonalLoop=1;jettySize=auto;html=1;" edge="1" parent="1" source="grERy3gLBYckKLbgC4fB-21" target="grERy3gLBYckKLbgC4fB-1">
          <mxGeometry relative="1" as="geometry" />
        </mxCell>
        <mxCell id="grERy3gLBYckKLbgC4fB-21" value="Prices" style="whiteSpace=wrap;html=1;" vertex="1" parent="1">
          <mxGeometry x="170" y="430" width="90" height="40" as="geometry" />
        </mxCell>
        <mxCell id="grERy3gLBYckKLbgC4fB-23" value="Load with waiting list" style="whiteSpace=wrap;html=1;" vertex="1" parent="1">
          <mxGeometry x="480" y="440" width="90" height="40" as="geometry" />
        </mxCell>
      </root>
    </mxGraphModel>
  </diagram>
</mxfile>
